<?xml version="1.0" encoding="UTF-8"?>
<svg width="23px" height="23px" viewBox="0 0 23 23" version="1.1" xmlns="http://www.w3.org/2000/svg" xmlns:xlink="http://www.w3.org/1999/xlink">
    <!-- Generator: Sketch 51 (57462) - http://www.bohemiancoding.com/sketch -->
    <title>arrow-right-circle - simple-line-icons</title>
    <desc>Created with Sketch.</desc>
    <defs></defs>
    <g id="HomePage" stroke="none" stroke-width="1" fill="none" fill-rule="evenodd">
        <g id="Homepage-Copy-2" transform="translate(-754.000000, -1284.000000)">
            <rect fill="#FEFEFE" x="0" y="0" width="1440" height="4362"></rect>
            <g id="Section1" transform="translate(136.000000, 709.000000)" fill="#4A90E2">
                <g id="Cards" transform="translate(0.000000, 204.000000)">
                    <g id="Card" transform="translate(400.000000, 0.000000)">
                        <g id="Btn" transform="translate(81.000000, 355.000000)">
                            <g id="Group-12" transform="translate(48.000000, 15.000000)">
                                <g id="Icon" transform="translate(89.000000, 0.000000)">
                                    <path d="M17.2724609,2.54980469 C19.0393969,3.56803895 20.4357045,4.96060314 21.4614258,6.72753906 C22.4871471,8.49447498 23,10.4186094 23,12.5 C23,14.5813906 22.4871471,16.505525 21.4614258,18.2724609 C20.4357045,20.0393969 19.0393969,21.4357045 17.2724609,22.4614258 C15.505525,23.4871471 13.5813906,24 11.5,24 C9.41860938,24 7.49447498,23.4871471 5.72753906,22.4614258 C3.96060314,21.4357045 2.56429549,20.0393969 1.53857422,18.2724609 C0.512852944,16.505525 0,14.5813906 0,12.5 C0,10.4186094 0.512852944,8.49447498 1.53857422,6.72753906 C2.56429549,4.96060314 3.96060314,3.56429549 5.72753906,2.53857422 C7.49447498,1.51285294 9.41860938,1 11.5,1 C13.5813906,1 15.505525,1.5165964 17.2724609,2.54980469 Z M11.5,22.5849609 C12.862637,22.5849609 14.1653584,22.3191758 15.4082031,21.7875977 C16.6510479,21.2560195 17.7216752,20.5372767 18.6201172,19.6313477 C19.5185592,18.7254186 20.2335585,17.6510479 20.7651367,16.4082031 C21.2967149,15.1653584 21.5625,13.862637 21.5625,12.5 C21.5625,11.137363 21.2967149,9.83464163 20.7651367,8.59179688 C20.2335585,7.34895212 19.5185592,6.2783248 18.6201172,5.37988281 C17.7216752,4.48144082 16.6510479,3.76644146 15.4082031,3.23486328 C14.1653584,2.7032851 12.862637,2.4375 11.5,2.4375 C10.137363,2.4375 8.83464163,2.7032851 7.59179688,3.23486328 C6.34895212,3.76644146 5.2783248,4.48144082 4.37988281,5.37988281 C3.48144082,6.2783248 2.76644146,7.34895212 2.23486328,8.59179688 C1.7032851,9.83464163 1.4375,11.137363 1.4375,12.5 C1.4375,13.5931044 1.60595535,14.6525014 1.94287109,15.6782227 C2.27978684,16.7039439 2.75894872,17.6285766 3.38037109,18.4521484 C4.00179347,19.2757203 4.72427974,20.00195 5.54785156,20.6308594 C6.37142339,21.2597688 7.29605607,21.7426741 8.32177734,22.0795898 C9.34749862,22.4165056 10.4068956,22.5849609 11.5,22.5849609 Z M12.4658203,7.94042969 C12.6604827,7.94042969 12.8326815,8.01529873 12.9824219,8.16503906 L17.2275391,12.5224609 L12.9824219,16.8798828 C12.8326815,17.0146491 12.6604827,17.0820312 12.4658203,17.0820312 C12.3759761,17.0820312 12.2861333,17.063314 12.1962891,17.0258789 C12.1064449,16.9884438 12.0278324,16.9360355 11.9604492,16.8686523 C11.8930661,16.8012692 11.8406577,16.7226567 11.8032227,16.6328125 C11.7657876,16.5429683 11.7470703,16.4531254 11.7470703,16.3632812 C11.7470703,16.2734371 11.7657876,16.1835942 11.8032227,16.09375 C11.8406577,16.0039058 11.8893226,15.9215499 11.9492188,15.8466797 L14.5996094,13.21875 L6.46875,13.21875 C6.25911354,13.21875 6.08691474,13.1476244 5.95214844,13.0053711 C5.81738214,12.8631178 5.75,12.690919 5.75,12.4887695 C5.75,12.2866201 5.81738214,12.1181647 5.95214844,11.9833984 C6.08691474,11.8486321 6.25911354,11.78125 6.46875,11.78125 L14.5546875,11.78125 L11.9492188,9.17578125 C11.8144525,9.04101495 11.7470703,8.8725596 11.7470703,8.67041016 C11.7470703,8.46826071 11.8181959,8.29606191 11.9604492,8.15380859 C12.1027025,8.01155528 12.2711579,7.94042969 12.4658203,7.94042969 Z" id="arrow-right-circle---simple-line-icons"></path>
                                </g>
                            </g>
                        </g>
                    </g>
                </g>
            </g>
        </g>
    </g>
</svg>