<?xml version="1.0" encoding="UTF-8"?>
<svg width="64px" height="60px" viewBox="0 0 64 60" version="1.1" xmlns="http://www.w3.org/2000/svg" xmlns:xlink="http://www.w3.org/1999/xlink">
    <!-- Generator: Sketch 51.3 (57544) - http://www.bohemiancoding.com/sketch -->
    <title>printer-offset</title>
    <desc>Created with Sketch.</desc>
    <defs></defs>
    <g id="HomePage" stroke="none" stroke-width="1" fill="none" fill-rule="evenodd">
        <g id="Homepage-Copy-2" transform="translate(-688.000000, -2649.000000)" fill="#FFF153" fill-rule="nonzero">
            <g id="Section2" transform="translate(136.000000, 2043.000000)">
                <g id="Card" transform="translate(400.000000, 574.000000)">
                    <g id="Stacked-Group" transform="translate(32.000000, 32.000000)">
                        <g id="printer-offset" transform="translate(120.000000, 0.000000)">
                            <path d="M42.8964948,0.00287822878 C42.6862405,0.00354243542 42.4803849,0.0648708487 42.3037801,0.179778598 L26.3917526,10.1911439 L26.3917526,5.54656827 C26.3917526,2.49918819 23.9206048,0.0115129151 20.8934708,0.0115129151 L5.49828179,0.0115129151 C2.47114777,0.0115129151 0,2.49918819 0,5.54656827 L0,22.1517343 C0,22.7630258 0.492426117,23.2587454 1.09965636,23.2587454 L42.8865979,23.2587454 C43.4938282,23.2587454 43.9862543,22.7630258 43.9862543,22.1517343 L43.9862543,12.1886347 C43.9862543,11.5773432 43.4938282,11.0816236 42.8865979,11.0816236 L29.126378,11.0816236 L43.4691959,2.05726937 C44.4232577,1.47630996 44.0117663,-0.000664206642 42.8964948,0.00287822878 Z M5.49828179,2.22553506 L20.8934708,2.22553506 C22.7400137,2.22553506 24.1924399,3.68767528 24.1924399,5.54656827 L24.1924399,12.1886347 C24.1924399,12.7999262 24.684866,13.2956458 25.2920962,13.2956458 L41.7869416,13.2956458 L41.7869416,21.0447232 L2.19931271,21.0447232 L2.19931271,5.54656827 C2.19931271,3.68745387 3.65173883,2.22553506 5.49828179,2.22553506 Z M4.39862543,3.88605166 C4.09490034,3.88605166 3.84879725,4.13380074 3.84879725,4.4395572 L3.84879725,13.2956458 C3.84439863,13.6014022 4.08720275,13.8526937 4.39092784,13.8569004 C4.69465292,13.8613284 4.94427491,13.6169004 4.94845361,13.3111439 C4.94845361,13.3058303 4.94845361,13.300738 4.94845361,13.2954244 L4.94845361,4.99284133 L10.9965636,4.99284133 C11.3002887,4.99726937 11.5499107,4.75284133 11.5540893,4.44708487 C11.558268,4.14132841 11.3156838,3.8900369 11.0119588,3.88583026 C11.0066804,3.88583026 11.001622,3.88583026 10.9963436,3.88583026 L4.39862543,3.88583026 L4.39862543,3.88605166 Z M62.6854708,18.8233948 C62.5123849,18.8247232 62.3421581,18.8674539 62.1884261,18.9476015 L48.9925498,25.5896679 C48.4444811,25.8533579 48.2126735,26.5144649 48.4746117,27.0659779 C48.7365498,27.6174908 49.3932646,27.8510701 49.9411134,27.5873801 C49.9529897,27.5816236 49.964646,27.5758672 49.9760825,27.5696679 L63.1719588,20.9276015 C63.7189278,20.6619188 63.9485361,19.9999262 63.6843986,19.4492989 C63.4998763,19.0636162 63.1108179,18.8198524 62.6854708,18.8233948 Z M62.6854708,25.4654613 C62.5123849,25.4667897 62.3421581,25.5095203 62.1884261,25.5896679 L48.9925498,32.2317343 C48.4444811,32.4954244 48.2126735,33.1565314 48.4746117,33.7080443 C48.7365498,34.2595572 49.3932646,34.4931365 49.9411134,34.2294465 C49.9529897,34.22369 49.964646,34.2179336 49.9760825,34.2117343 L63.1719588,27.5696679 C63.7189278,27.3039852 63.9485361,26.6419926 63.6843986,26.0913653 C63.4998763,25.7056827 63.1108179,25.4619188 62.6854708,25.4654613 Z M1.09965636,25.4727675 C0.492426117,25.4727675 0,25.9684871 0,26.5797786 L0,39.8639114 C0,40.475203 0.492426117,40.9709225 1.09965636,40.9709225 L42.8865979,40.9709225 C43.4938282,40.9709225 43.9862543,40.475203 43.9862543,39.8639114 L43.9862543,26.5797786 C43.9862543,25.9684871 43.4938282,25.4727675 42.8865979,25.4727675 L1.09965636,25.4727675 Z M2.19931271,27.6867897 L41.7869416,27.6867897 L41.7869416,38.7569004 L2.19931271,38.7569004 L2.19931271,27.6867897 Z M62.6854708,32.0993358 C62.5123849,32.1006642 62.3421581,32.1433948 62.1884261,32.2235424 L48.9925498,38.8656089 C48.4444811,39.1292989 48.2126735,39.7904059 48.4746117,40.3419188 C48.7365498,40.8934317 49.3932646,41.1270111 49.9411134,40.863321 C49.9529897,40.8575646 49.964646,40.8518081 49.9760825,40.8456089 L63.1719588,34.2035424 C63.7189278,33.9378598 63.9485361,33.2758672 63.6843986,32.7252399 C63.4998763,32.3395572 63.1108179,32.0957934 62.6854708,32.0993358 Z M1.09965636,43.1849446 C0.492426117,43.1849446 0,43.6806642 0,44.2919557 L0,54.2550554 C0,57.3024354 2.47114777,59.7901107 5.49828179,59.7901107 L38.4879725,59.7901107 C41.5151065,59.7901107 43.9862543,57.3024354 43.9862543,54.2550554 L43.9862543,44.2919557 C43.9862543,43.6806642 43.4938282,43.1849446 42.8865979,43.1849446 L31.8900344,43.1849446 C31.6520687,43.1849446 31.4204811,43.2626568 31.2302405,43.4063469 L27.1245636,46.5059779 L14.6619381,46.5059779 L10.556701,43.4063469 C10.3664605,43.2626568 10.1348729,43.1849446 9.89690722,43.1849446 L1.09965636,43.1849446 Z M2.19931271,45.3989668 L9.53006186,45.3989668 L13.6357388,48.4985978 C13.8261993,48.6422878 14.057567,48.72 14.2955326,48.72 L27.4914089,48.72 C27.7293746,48.72 27.9609622,48.6422878 28.1512027,48.4985978 L32.2564399,45.3989668 L41.7869416,45.3989668 L41.7869416,54.2550554 C41.7869416,56.1139483 40.3345155,57.5760886 38.4879725,57.5760886 L5.49828179,57.5760886 C3.65173883,57.5760886 2.19931271,56.1139483 2.19931271,54.2550554 L2.19931271,45.3989668 Z M39.5790515,50.3727675 C39.2757663,50.3776384 39.033622,50.6287085 39.0378007,50.9340221 L39.0378007,54.8085609 L36.2886598,54.8085609 C35.9849347,54.8041328 35.7353127,55.0485609 35.731134,55.3543173 C35.7269553,55.6600738 35.9695395,55.9113653 36.2732646,55.915572 C36.278543,55.915572 36.2836014,55.915572 36.2888797,55.915572 L39.5878488,55.915572 C39.8915739,55.915572 40.137677,55.6678229 40.137677,55.3620664 L40.137677,50.9340221 C40.1418557,50.6282657 39.8992715,50.3769742 39.5955464,50.3727675 C39.5898282,50.3725461 39.5845498,50.3725461 39.5790515,50.3727675 Z" id="rect22454"></path>
                        </g>
                    </g>
                </g>
            </g>
        </g>
    </g>
</svg>