<?xml version="1.0" encoding="UTF-8"?>
<svg width="13px" height="18px" viewBox="0 0 13 18" version="1.1" xmlns="http://www.w3.org/2000/svg" xmlns:xlink="http://www.w3.org/1999/xlink">
    <!-- Generator: Sketch 51.3 (57544) - http://www.bohemiancoding.com/sketch -->
    <title>icon-footer2</title>
    <desc>Created with Sketch.</desc>
    <defs></defs>
    <g id="HomePage" stroke="none" stroke-width="1" fill="none" fill-rule="evenodd">
        <g id="Homepage-Copy-2" transform="translate(-523.000000, -4082.000000)" fill="#FFFFFF">
            <g id="Footer" transform="translate(0.000000, 4022.000000)">
                <g id="Stacked-Group" transform="translate(239.000000, 60.000000)">
                    <g id="Adresse" transform="translate(280.000000, 0.000000)">
                        <g id="envelope---FontAwesome-Copy-2">
                            <path d="M12.4594727,8.12109375 C13.0698273,7.53515332 13.375,6.82812914 13.375,6 C13.375,5.17187086 13.0698273,4.46484668 12.4594727,3.87890625 C11.849118,3.29296582 11.1126345,3 10.25,3 C9.38736548,3 8.65088196,3.29296582 8.04052734,3.87890625 C7.43017273,4.46484668 7.125,5.17187086 7.125,6 C7.125,6.82812914 7.43017273,7.53515332 8.04052734,8.12109375 C8.65088196,8.70703418 9.38736548,9 10.25,9 C11.1126345,9 11.849118,8.70703418 12.4594727,8.12109375 Z M16.5,6 C16.5,6.85156676 16.365724,7.55077852 16.097168,8.09765625 L11.6538086,17.1679688 C11.5235996,17.4257825 11.3303235,17.6289055 11.0739746,17.7773438 C10.8176257,17.925782 10.5429702,18 10.25,18 C9.95702979,18 9.68237433,17.925782 9.42602539,17.7773438 C9.16967645,17.6289055 8.98046936,17.4257825 8.85839844,17.1679688 L4.40283203,8.09765625 C4.134276,7.55077852 4,6.85156676 4,6 C4,4.34374172 4.61034546,2.92969336 5.83105469,1.7578125 C7.05176392,0.585931641 8.52473096,0 10.25,0 C11.975269,0 13.4482361,0.585931641 14.6689453,1.7578125 C15.8896545,2.92969336 16.5,4.34374172 16.5,6 Z" id="map-marker---FontAwesome"></path>
                        </g>
                    </g>
                </g>
            </g>
        </g>
    </g>
</svg>