<?xml version="1.0" encoding="UTF-8"?>
<svg width="17px" height="13px" viewBox="0 0 17 13" version="1.1" xmlns="http://www.w3.org/2000/svg" xmlns:xlink="http://www.w3.org/1999/xlink">
    <!-- Generator: Sketch 51.3 (57544) - http://www.bohemiancoding.com/sketch -->
    <title>icon-footer4</title>
    <desc>Created with Sketch.</desc>
    <defs></defs>
    <g id="HomePage" stroke="none" stroke-width="1" fill="none" fill-rule="evenodd">
        <g id="Homepage-Copy-2" transform="translate(-1073.000000, -4086.000000)" fill="#FFFFFF">
            <g id="Footer" transform="translate(0.000000, 4022.000000)">
                <g id="Stacked-Group" transform="translate(239.000000, 60.000000)">
                    <g id="Email" transform="translate(832.000000, 0.000000)">
                        <g id="envelope---FontAwesome">
                            <path d="M19,8.19176136 L19,15.5227273 C19,15.9289793 18.851378,16.2767504 18.5541295,16.5660511 C18.256881,16.8553518 17.8995557,17 17.4821429,17 L3.51785714,17 C3.10044434,17 2.74311905,16.8553518 2.44587054,16.5660511 C2.14862203,16.2767504 2,15.9289793 2,15.5227273 L2,8.19176136 C2.2782752,8.49337272 2.59765445,8.76112572 2.95814732,8.99502841 C5.24759329,10.5092405 6.81919216,11.5710197 7.67299107,12.1803977 C8.03348395,12.4389217 8.32598474,12.6405059 8.55050223,12.7851562 C8.77501972,12.9298066 9.07384486,13.0775324 9.44698661,13.2283381 C9.82012835,13.3791437 10.1679671,13.4545455 10.4905134,13.4545455 L10.5094866,13.4545455 C10.8320329,13.4545455 11.1798716,13.3791437 11.5530134,13.2283381 C11.9261551,13.0775324 12.2249803,12.9298066 12.4494978,12.7851562 C12.6740153,12.6405059 12.9665161,12.4389217 13.3270089,12.1803977 C14.4021631,11.4232917 15.9769242,10.3615125 18.0513393,8.99502841 C18.4118322,8.75497039 18.7280492,8.48721739 19,8.19176136 Z M19,5.47727273 C19,5.9635441 18.8450536,6.42826483 18.5351562,6.87144886 C18.2252589,7.3146329 17.839474,7.69318025 17.3777902,8.00710227 C14.9998021,9.6136444 13.5199062,10.6138711 12.938058,11.0078125 C12.8748137,11.0508998 12.7404214,11.1447673 12.5348772,11.2894176 C12.329333,11.434068 12.1585758,11.5510175 12.0226004,11.6402699 C11.8866251,11.7295222 11.7221922,11.8295449 11.5292969,11.9403409 C11.3364016,12.0511369 11.1545767,12.1342327 10.983817,12.1896307 C10.8130572,12.2450287 10.6549486,12.2727273 10.5094866,12.2727273 L10.4905134,12.2727273 C10.3450514,12.2727273 10.1869428,12.2450287 10.016183,12.1896307 C9.84542325,12.1342327 9.66359843,12.0511369 9.47070312,11.9403409 C9.27780782,11.8295449 9.11337494,11.7295222 8.97739955,11.6402699 C8.84142417,11.5510175 8.67066695,11.434068 8.46512277,11.2894176 C8.25957859,11.1447673 8.12518633,11.0508998 8.06194196,11.0078125 C7.48641825,10.6138711 6.65792951,10.0522054 5.57645089,9.3227983 C4.49497227,8.59339124 3.84672727,8.15483028 3.63169643,8.00710227 C3.23958137,7.74857825 2.86960739,7.39311306 2.52176339,6.94069602 C2.17391939,6.48827899 2,6.06818376 2,5.68039773 C2,5.20028169 2.13123009,4.80019099 2.3936942,4.48011364 C2.65615831,4.16003628 3.03087554,4 3.51785714,4 L17.4821429,4 C17.8932312,4 18.2489754,4.14464817 18.5493862,4.43394886 C18.8497969,4.72324955 19,5.0710207 19,5.47727273 Z"></path>
                        </g>
                    </g>
                </g>
            </g>
        </g>
    </g>
</svg>