<?xml version="1.0" encoding="UTF-8"?>
<svg width="18px" height="18px" viewBox="0 0 18 18" version="1.1" xmlns="http://www.w3.org/2000/svg" xmlns:xlink="http://www.w3.org/1999/xlink">
    <!-- Generator: Sketch 51.3 (57544) - http://www.bohemiancoding.com/sketch -->
    <title>icon-footer1</title>
    <desc>Created with Sketch.</desc>
    <defs></defs>
    <g id="HomePage" stroke="none" stroke-width="1" fill="none" fill-rule="evenodd">
        <g id="Homepage-Copy-2" transform="translate(-240.000000, -4083.000000)" fill="#FFFFFF">
            <g id="Footer" transform="translate(0.000000, 4022.000000)">
                <g id="Stacked-Group" transform="translate(239.000000, 60.000000)">
                    <g id="Site">
                        <g id="envelope---FontAwesome-Copy">
                            <path d="M5.26339286,2.14955357 C6.58036373,1.38318069 8.01636127,1 9.57142857,1 C11.1264959,1 12.5606333,1.38318069 13.8738839,2.14955357 C15.1871345,2.91592645 16.2269307,3.9557226 16.9933036,5.26897321 C17.7596765,6.58222383 18.1428571,8.01636127 18.1428571,9.57142857 C18.1428571,11.1264959 17.7596765,12.5606333 16.9933036,13.8738839 C16.2269307,15.1871345 15.1871345,16.2269307 13.8738839,16.9933036 C12.5606333,17.7596765 11.1264959,18.1428571 9.57142857,18.1428571 C8.01636127,18.1428571 6.58222383,17.7596765 5.26897321,16.9933036 C3.9557226,16.2269307 2.91592645,15.1871345 2.14955357,13.8738839 C1.38318069,12.5606333 1,11.1264959 1,9.57142857 C1,8.01636127 1.38318069,6.58222383 2.14955357,5.26897321 C2.91592645,3.9557226 3.9538625,2.91592645 5.26339286,2.14955357 Z M12.3765515,7.02609098 C12.3752859,7.02634467 12.3740247,7.02657625 12.3727679,7.02678571 C12.3740068,7.02678571 12.3752586,7.02665679 12.3765233,7.02639893 L12.3765515,7.02609098 Z M12.3765233,7.02639893 C12.3904493,7.02355956 12.4059384,7.00508744 12.4229911,6.97098214 C12.4415924,6.93377958 12.4601934,6.89285737 12.4787946,6.84821429 C12.4973959,6.80357121 12.5104166,6.7775298 12.5178571,6.77008929 C12.5625002,6.71800569 12.6443446,6.66220268 12.7633929,6.60267857 C12.86756,6.55803549 13.0610105,6.51339308 13.34375,6.46875 C13.5964523,6.40929063 13.7860449,6.45005921 13.9125335,6.59105697 C13.8987696,6.57567661 13.9342539,6.52746448 14.0189732,6.44642857 C14.1045391,6.36458292 14.158482,6.31994051 14.1808036,6.3125 C14.2031251,6.29761897 14.2589281,6.28087807 14.3482143,6.26227679 C14.4375004,6.2436755 14.4933035,6.215774 14.515625,6.17857143 L14.5379464,5.93303571 C14.4486603,5.94047623 14.3835568,5.91443482 14.3426339,5.85491071 C14.3019121,5.79567903 14.2777678,5.71802954 14.2702002,5.62195992 C14.2643603,5.64283746 14.2423659,5.67058054 14.203125,5.70982143 C14.203125,5.65773783 14.1863841,5.62797623 14.1529018,5.62053571 C14.1194195,5.6130952 14.0766372,5.6168154 14.0245536,5.63169643 C13.97247,5.64657746 13.9389882,5.65029766 13.9241071,5.64285714 C13.849702,5.6205356 13.793899,5.5926341 13.7566964,5.55915179 C13.7194939,5.52566948 13.6897323,5.46428616 13.6674107,5.375 C13.6450892,5.28571384 13.6302084,5.22991083 13.6227679,5.20758929 C13.6078868,5.17038672 13.5725449,5.12946451 13.5167411,5.08482143 C13.4609372,5.04017835 13.4255953,5.00297634 13.4107143,4.97321429 C13.4032738,4.95833326 13.3939733,4.93787215 13.3828125,4.91183036 C13.3716517,4.88578856 13.3604911,4.86160725 13.3493304,4.83928571 C13.3381696,4.81696417 13.3232888,4.79650307 13.3046875,4.77790179 C13.2860862,4.7593005 13.2656251,4.75 13.2433036,4.75 C13.220982,4.75 13.1949406,4.768601 13.1651786,4.80580357 C13.1354165,4.84300614 13.107515,4.88020815 13.0814732,4.91741071 C13.0554314,4.95461328 13.0386905,4.97321429 13.03125,4.97321429 C13.0089285,4.95833326 12.9866073,4.95275296 12.9642857,4.95647321 C12.9419642,4.96019347 12.9252233,4.96391367 12.9140625,4.96763393 C12.9029017,4.97135419 12.8861608,4.98251479 12.8638393,5.00111607 C12.8415177,5.01971735 12.8229167,5.03273806 12.8080357,5.04017857 C12.7857142,5.0550596 12.7540925,5.0662202 12.7131696,5.07366071 C12.6728708,5.08098777 12.6415917,5.08831472 12.6193312,5.09564177 C12.7298335,5.05803045 12.7251019,5.01744892 12.6071429,4.97321429 C12.5327781,4.94346838 12.4732791,4.93230375 12.4286441,4.93972005 C12.496531,4.9083529 12.523236,4.86425277 12.5122768,4.80580357 C12.501116,4.74627946 12.4694943,4.69419665 12.4174107,4.64955357 L12.4732143,4.64955357 C12.4657738,4.61979152 12.4341521,4.58816981 12.3783482,4.5546875 C12.3225444,4.52120519 12.2574408,4.48958348 12.1830357,4.45982143 C12.1086306,4.43005937 12.060268,4.40773817 12.0379464,4.39285714 C11.9784223,4.35565458 11.8519355,4.32031267 11.6584821,4.28683036 C11.4650288,4.25334805 11.3422622,4.25148795 11.2901786,4.28125 C11.252976,4.32589308 11.2362351,4.36495519 11.2399554,4.3984375 C11.2436756,4.43191981 11.2585564,4.48400262 11.2845982,4.5546875 C11.31064,4.62537238 11.3236607,4.67187489 11.3236607,4.69419643 C11.3311012,4.73883951 11.3106401,4.78720212 11.2622768,4.83928571 C11.2139134,4.89136931 11.1897321,4.93601172 11.1897321,4.97321429 C11.1897321,5.02529788 11.241815,5.08296099 11.3459821,5.14620536 C11.4501493,5.20944972 11.4873513,5.28943404 11.4575893,5.38616071 C11.4352677,5.44568482 11.3757445,5.50520804 11.2790179,5.56473214 C11.1822912,5.62425625 11.122768,5.66889866 11.1004464,5.69866071 C11.0632439,5.75818482 11.0576636,5.82700854 11.0837054,5.90513393 C11.1097472,5.98325932 11.1488093,6.04464263 11.2008929,6.08928571 C11.2157739,6.10416674 11.2213542,6.11904754 11.2176339,6.13392857 C11.2139137,6.1488096 11.200893,6.1655505 11.1785714,6.18415179 C11.1562499,6.20275307 11.1357888,6.21763387 11.1171875,6.22879464 C11.0985862,6.23995541 11.0744049,6.25297612 11.0446429,6.26785714 L11.0111607,6.29017857 C10.9293151,6.32738114 10.8530509,6.30505993 10.7823661,6.22321429 C10.7116812,6.14136864 10.6614585,6.04464342 10.6316964,5.93303571 C10.5796128,5.74702288 10.5200896,5.63541685 10.453125,5.59821429 C10.2819932,5.53869018 10.1741074,5.54241038 10.1294643,5.609375 C10.0922617,5.51264833 9.93973348,5.4159231 9.671875,5.31919643 C9.48591532,5.25225094 9.27021383,5.23735951 9.02476406,5.27452169 C9.06919368,5.26619914 9.06883237,5.21046004 9.02455357,5.10714286 C8.97246998,4.99553516 8.90178616,4.95089275 8.8125,4.97321429 C8.83482154,4.92857121 8.84970234,4.86346769 8.85714286,4.77790179 C8.86458337,4.69233588 8.86830357,4.64211317 8.86830357,4.62723214 C8.89062511,4.53050547 8.93526752,4.44494085 9.00223214,4.37053571 C9.00967266,4.3630952 9.03571406,4.33147349 9.08035714,4.27566964 C9.12500022,4.21986579 9.16034213,4.16964308 9.18638393,4.125 C9.21181533,4.08140331 9.21418534,4.05909435 9.19349401,4.0580725 C9.45285074,4.08769456 9.63853288,4.04673498 9.75,3.93526786 C9.78720257,3.89806529 9.82998488,3.83482187 9.87834821,3.74553571 C9.92671155,3.65624955 9.96577366,3.59300614 9.99553571,3.55580357 C10.0625003,3.51116049 10.1145831,3.49069939 10.1517857,3.49441964 C10.1889883,3.4981399 10.2429312,3.518601 10.3136161,3.55580357 C10.3843009,3.59300614 10.4382439,3.61160714 10.4754464,3.61160714 C10.5796136,3.61904766 10.6372767,3.57812545 10.6484375,3.48883929 C10.6595983,3.39955313 10.6316968,3.32514911 10.5647321,3.265625 C10.6540183,3.27306551 10.6651789,3.2098221 10.5982143,3.07589286 C10.5684522,3.02380926 10.5386906,2.99032746 10.5089286,2.97544643 C10.4196424,2.94568437 10.319197,2.96428538 10.2075893,3.03125 C10.1483648,3.06086227 10.1554324,3.09047409 10.2287924,3.12008635 C10.2196945,3.11618653 10.1846821,3.15546691 10.1238839,3.23772321 C10.0606396,3.32328912 9.99925625,3.38839263 9.93973214,3.43303571 C9.88020804,3.47767879 9.82068482,3.45907779 9.76116071,3.37723214 C9.7537202,3.36979163 9.7332591,3.31956892 9.69977679,3.2265625 C9.66629448,3.13355608 9.63095257,3.08333337 9.59375,3.07589286 C9.53426042,3.07589286 9.47477172,3.13163116 9.41528214,3.24310943 C9.43605146,3.18183147 9.39475869,3.12706684 9.29241071,3.07589286 C9.18824353,3.02380926 9.09895871,2.99404766 9.02455357,2.98660714 C9.16592333,2.89732098 9.13616172,2.79687556 8.93526786,2.68526786 C8.88318426,2.6555058 8.80692015,2.6369048 8.70647321,2.62946429 C8.60602628,2.62202377 8.53348237,2.63690458 8.48883929,2.67410714 C8.45163672,2.72619074 8.43117561,2.76897305 8.42745536,2.80245536 C8.4237351,2.83593767 8.4423361,2.86569927 8.48325893,2.89174107 C8.52418175,2.91778287 8.56324386,2.93824397 8.60044643,2.953125 C8.637649,2.96800603 8.68043131,2.98288683 8.72879464,2.99776786 C8.77715798,3.01264888 8.80877969,3.02380949 8.82366071,3.03125 C8.9278279,3.10565513 8.95758951,3.15773795 8.91294643,3.1875 C8.8980654,3.19494051 8.86644369,3.20796122 8.81808036,3.2265625 C8.76971702,3.24516378 8.72693471,3.26190469 8.68973214,3.27678571 C8.65252958,3.29166674 8.63020837,3.30654754 8.62276786,3.32142857 C8.60044632,3.35119063 8.60044632,3.40327344 8.62276786,3.47767857 C8.6450894,3.55208371 8.637649,3.60416652 8.60044643,3.63392857 C8.56324386,3.596726 8.52976205,3.53162249 8.5,3.43861607 C8.47202416,3.35119158 8.44733577,3.29170828 8.42593418,3.26016463 C8.4679566,3.32279057 8.37345511,3.34304713 8.14285714,3.32142857 L8.03125,3.31026786 C8.00148795,3.31026786 7.94196473,3.31770826 7.85267857,3.33258929 C7.76339241,3.34747031 7.68712829,3.35119051 7.62388393,3.34375 C7.56063956,3.33630949 7.51041685,3.30654788 7.47321429,3.25446429 C7.44345223,3.19494018 7.44345223,3.12053616 7.47321429,3.03125 C7.48061806,3.00163491 7.49538883,2.99412157 7.51752703,3.00870976 C7.48301913,2.98221045 7.44396954,2.94829059 7.39508929,2.90290179 C7.34300569,2.85453845 7.30580368,2.82291674 7.28348214,2.80803571 C6.94121853,2.91964342 6.59151964,3.07217165 6.234375,3.265625 C6.27901808,3.27306551 6.32366049,3.26934531 6.36830357,3.25446429 C6.40550614,3.23958326 6.45386875,3.21540195 6.51339286,3.18191964 C6.57291696,3.14843733 6.61011897,3.12797623 6.625,3.12053571 C6.87797746,3.01636853 7.03422589,2.99032712 7.09375,3.04241071 L7.14955357,2.98660714 C7.25372076,3.10565536 7.32812478,3.19866038 7.37276786,3.265625 C7.32068426,3.23586295 7.20907824,3.23214275 7.03794643,3.25446429 C6.88913616,3.29910737 6.80729174,3.34374978 6.79241071,3.38839286 C6.84449431,3.47767902 6.86309531,3.54464263 6.84821429,3.58928571 C6.81845223,3.56696417 6.77566992,3.52976217 6.71986607,3.47767857 C6.66406222,3.42559498 6.61011931,3.38467277 6.55803571,3.35491071 C6.50595212,3.32514866 6.45014911,3.30654766 6.390625,3.29910714 C6.27157679,3.29910714 6.18973237,3.30282734 6.14508929,3.31026786 C5.05877433,3.90550893 4.18452712,4.73139353 3.52232143,5.78794643 C3.57440502,5.84003002 3.61904743,5.86979163 3.65625,5.87723214 C3.68601205,5.88467266 3.70461306,5.91815446 3.71205357,5.97767857 C3.71949408,6.03720268 3.72879459,6.07812489 3.73995536,6.10044643 C3.75111613,6.12276797 3.79389844,6.11160737 3.86830357,6.06696429 C3.93526819,6.12648839 3.94642879,6.19717221 3.90178571,6.27901786 C3.90922623,6.27157734 4.07291507,6.37202277 4.39285714,6.58035714 C4.5342269,6.70684587 4.61235112,6.78497009 4.62723214,6.81473214 C4.64955368,6.89657779 4.61235167,6.96354141 4.515625,7.015625 C4.50818449,7.00074397 4.47470268,6.96726217 4.41517857,6.91517857 C4.35565446,6.86309498 4.32217266,6.84821417 4.31473214,6.87053571 C4.2924106,6.90773828 4.2942707,6.976562 4.3203125,7.07700893 C4.34534968,7.17358089 4.38242197,7.22029021 4.43153041,7.21713813 C4.38270652,7.22121321 4.34935476,7.28064738 4.33147321,7.39508929 C4.31287193,7.5141375 4.30357143,7.64620463 4.30357143,7.79129464 C4.30357143,7.93638465 4.29985123,8.02380937 4.29241071,8.05357143 L4.31473214,8.06473214 C4.2924106,8.1540183 4.31287171,8.28236523 4.37611607,8.44977679 C4.43936044,8.61718834 4.51934475,8.68973225 4.61607143,8.66741071 C4.51934475,8.68973225 4.59374877,8.84970089 4.83928571,9.14732143 C4.88392879,9.20684554 4.9136904,9.24032734 4.92857143,9.24776786 C4.95089297,9.26264888 4.99553538,9.29055039 5.0625,9.33147321 C5.12946462,9.37239604 5.18526763,9.40959805 5.22991071,9.44308036 C5.27455379,9.47656267 5.3117558,9.51562478 5.34151786,9.56026786 C5.37127991,9.59747042 5.40848192,9.68117494 5.453125,9.81138393 C5.49776808,9.94159291 5.54985089,10.0290176 5.609375,10.0736607 C5.59449397,10.1183038 5.62983588,10.1927078 5.71540179,10.296875 C5.80096769,10.4010422 5.8400298,10.4866068 5.83258929,10.5535714 C5.82514877,10.5535714 5.81584827,10.5572916 5.8046875,10.5647321 C5.79352673,10.5721727 5.78422623,10.5758929 5.77678571,10.5758929 C5.79910725,10.6279765 5.85677037,10.6800593 5.94977679,10.7321429 C6.0427832,10.7842265 6.10044632,10.8325891 6.12276786,10.8772321 C6.13020837,10.8995537 6.13764877,10.9367557 6.14508929,10.9888393 C6.1525298,11.0409229 6.1636904,11.0818451 6.17857143,11.1116071 C6.19345246,11.1413692 6.22321406,11.1488096 6.26785714,11.1339286 C6.28273817,10.9851183 6.19345335,10.7544658 6,10.4419643 C5.8883923,10.2559515 5.82514888,10.1480656 5.81026786,10.1183036 C5.78794632,10.081101 5.76748521,10.0234379 5.74888393,9.9453125 C5.73028265,9.86718711 5.71354174,9.8132442 5.69866071,9.78348214 C5.71354174,9.78348214 5.73586295,9.78906244 5.765625,9.80022321 C5.79538705,9.81138398 5.82700876,9.82440469 5.86049107,9.83928571 C5.89397338,9.85416674 5.92187489,9.86904754 5.94419643,9.88392857 C5.96651797,9.8988096 5.97395837,9.9099702 5.96651786,9.91741071 C5.94419632,9.96949431 5.95163672,10.0345978 5.98883929,10.1127232 C6.02604185,10.1908486 6.07068426,10.2596723 6.12276786,10.3191964 C6.17485145,10.3787205 6.23809487,10.4494044 6.3125,10.53125 C6.38690513,10.6130956 6.43154754,10.6614583 6.44642857,10.6763393 C6.49107165,10.7209824 6.54315446,10.7935263 6.60267857,10.8939732 C6.66220268,10.9944201 6.66220268,11.0446429 6.60267857,11.0446429 C6.66964319,11.0446429 6.74404721,11.083705 6.82589286,11.1618304 C6.9077385,11.2399557 6.97098192,11.3124997 7.015625,11.3794643 C7.05282757,11.4389884 7.08258917,11.5357136 7.10491071,11.6696429 C7.12723225,11.8035721 7.14583326,11.8928569 7.16071429,11.9375 C7.17559531,11.9895836 7.20721702,12.0398063 7.25558036,12.0881696 C7.30394369,12.136533 7.35044621,12.1718749 7.39508929,12.1941964 L7.57366071,12.2834821 C7.64806585,12.3206847 7.69642846,12.3467261 7.71875,12.3616071 C7.75595257,12.3764882 7.82477628,12.4155503 7.92522321,12.4787946 C8.02567015,12.542039 8.10565446,12.5848213 8.16517857,12.6071429 C8.23958371,12.6369049 8.29910692,12.6517857 8.34375,12.6517857 C8.38839308,12.6517857 8.44233599,12.6424852 8.50558036,12.6238839 C8.56882472,12.6052826 8.61904743,12.5922619 8.65625,12.5848214 C8.7678577,12.5699404 8.87574353,12.6257434 8.97991071,12.7522321 C9.0840779,12.8787209 9.16220212,12.9568451 9.21428571,12.9866071 C9.48200794,13.127905 9.68654706,13.1688574 9.82790921,13.1094658 C9.81334946,13.1182485 9.81557734,13.1459475 9.83370536,13.1930804 C9.85230664,13.2414437 9.88206825,13.2991068 9.92299107,13.3660714 C9.9639139,13.433036 9.9973957,13.486979 10.0234375,13.5279018 C10.0494793,13.5688246 10.0699404,13.6004463 10.0848214,13.6227679 C10.122024,13.6674109 10.1889876,13.723214 10.2857143,13.7901786 C10.382441,13.8571432 10.4494046,13.9129462 10.4866071,13.9575893 C10.5268477,13.9307623 10.5519745,13.900913 10.5619882,13.8680407 C10.5456658,13.9255348 10.5728599,13.9963604 10.6428571,14.0803571 C10.7172623,14.1696433 10.7842259,14.2068453 10.84375,14.1919643 C10.9479172,14.1696427 11,14.0505963 11,13.8348214 C10.7693441,13.9464291 10.5870542,13.8794655 10.453125,13.6339286 C10.453125,13.6264881 10.4438245,13.606027 10.4252232,13.5725446 C10.4066219,13.5390623 10.3917411,13.5074406 10.3805804,13.4776786 C10.3694196,13.4479165 10.3601191,13.4162948 10.3526786,13.3828125 C10.3452381,13.3493302 10.3452381,13.3214287 10.3526786,13.2991071 C10.3601191,13.2767856 10.3787201,13.265625 10.4084821,13.265625 C10.4754468,13.265625 10.5126488,13.2526043 10.5200893,13.2265625 C10.5275298,13.2005207 10.5200894,13.1540182 10.4977679,13.0870536 C10.4754463,13.020089 10.4605655,12.9717263 10.453125,12.9419643 C10.4456845,12.8824402 10.4047623,12.8080362 10.3303571,12.71875 C10.255952,12.6294638 10.2113096,12.5736608 10.1964286,12.5513393 C10.159226,12.6183039 10.0997028,12.6480655 10.0178571,12.640625 C9.93602037,12.6331853 9.87650119,12.5997099 9.83929782,12.5401979 C9.83887345,12.5491209 9.83330049,12.569295 9.82254464,12.6015625 C9.81138387,12.6350448 9.80580357,12.6592261 9.80580357,12.6741071 C9.7090769,12.6741071 9.65327388,12.6703869 9.63839286,12.6629464 C9.64583337,12.6406249 9.65513387,12.5755214 9.66629464,12.4676339 C9.67745541,12.3597465 9.69047612,12.276042 9.70535714,12.2165179 C9.71279766,12.1867558 9.73325876,12.1421134 9.76674107,12.0825893 C9.80022338,12.0230652 9.82812489,11.9691223 9.85044643,11.9207589 C9.87276797,11.8723956 9.88764877,11.8258931 9.89508929,11.78125 C9.9025298,11.7366069 9.8857889,11.701265 9.84486607,11.6752232 C9.80394325,11.6491814 9.73883973,11.6398809 9.64955357,11.6473214 C9.50818382,11.6547619 9.41145859,11.729166 9.359375,11.8705357 C9.35193449,11.8928573 9.34077388,11.9319194 9.32589286,11.9877232 C9.31101183,12.0435271 9.29241083,12.0863094 9.27008929,12.1160714 C9.24776775,12.1458335 9.21428594,12.1718749 9.16964286,12.1941964 C9.11755926,12.216518 9.02827444,12.2239584 8.90178571,12.2165179 C8.77529699,12.2090773 8.68601217,12.1904763 8.63392857,12.1607143 C8.5372019,12.1011902 8.45349738,11.9933044 8.3828125,11.8370536 C8.31212762,11.6808028 8.27678571,11.5431554 8.27678571,11.4241071 C8.27678571,11.349702 8.28608622,11.2511167 8.3046875,11.1283482 C8.32328878,11.0055797 8.33444939,10.9125747 8.33816964,10.8493304 C8.3418899,10.786086 8.32142879,10.6949411 8.27678571,10.5758929 C8.29910725,10.5610118 8.33258906,10.5256699 8.37723214,10.4698661 C8.42187522,10.4140622 8.45907723,10.3750001 8.48883929,10.3526786 C8.50372031,10.3452381 8.52046122,10.3396578 8.5390625,10.3359375 C8.55766378,10.3322172 8.57440469,10.3322172 8.58928571,10.3359375 C8.60416674,10.3396578 8.61904754,10.3340775 8.63392857,10.3191964 C8.6488096,10.3043154 8.6599702,10.2819942 8.66741071,10.2522321 C8.6599702,10.2447916 8.6450894,10.233631 8.62276786,10.21875 C8.60435226,10.2003344 8.5910012,10.1895155 8.58271441,10.1862931 C8.6370041,10.2072064 8.74131971,10.2009447 8.89620536,10.1685268 C9.0561764,10.1350445 9.15848192,10.1406248 9.203125,10.1852679 C9.3147327,10.2671135 9.39657712,10.2596731 9.44866071,10.1629464 C9.44866071,10.1555059 9.43936021,10.120164 9.42075893,10.0569196 C9.40215765,9.99367528 9.40029754,9.94345257 9.41517857,9.90625 C9.45238114,10.1071439 9.56026696,10.1406257 9.73883929,10.0066964 C9.76116083,10.029018 9.81882394,10.047619 9.91183036,10.0625 C10.0048368,10.077381 10.0699403,10.095982 10.1071429,10.1183036 C10.1294644,10.1331846 10.1555058,10.1536457 10.1852679,10.1796875 C10.2150299,10.2057293 10.235491,10.2224702 10.2466518,10.2299107 C10.2578126,10.2373512 10.2764136,10.2354911 10.3024554,10.2243304 C10.3284972,10.2131696 10.3601189,10.1889883 10.3973214,10.1517857 C10.4717266,10.2559529 10.516369,10.3452377 10.53125,10.4196429 C10.6130956,10.7172634 10.6837795,10.8809522 10.7433036,10.9107143 C10.7953872,10.9330358 10.8363094,10.9404762 10.8660714,10.9330357 C10.8958335,10.9255952 10.9125744,10.8902533 10.9162946,10.8270089 C10.9200149,10.7637646 10.9200149,10.7116818 10.9162946,10.6707589 C10.9125744,10.6298361 10.9069941,10.5833336 10.8995536,10.53125 L10.8883929,10.4419643 L10.8883929,10.2410714 L10.8772321,10.1517857 C10.7656244,10.1294642 10.6968007,10.0848218 10.6707589,10.0178571 C10.6447171,9.95089252 10.6502974,9.88206881 10.6875,9.81138393 C10.7247026,9.74069905 10.7805056,9.67187533 10.8549107,9.60491071 C10.8623512,9.5974702 10.8921128,9.5844495 10.9441964,9.56584821 C10.99628,9.54724693 11.0539431,9.52306562 11.1171875,9.49330357 C11.1804319,9.46354152 11.2269344,9.43377991 11.2566964,9.40401786 C11.4129472,9.2626481 11.4687502,9.13244107 11.4241071,9.01339286 C11.4761907,9.01339286 11.5171129,8.97991105 11.546875,8.91294643 C11.5394345,8.91294643 11.5208335,8.90178583 11.4910714,8.87946429 C11.4613094,8.85714275 11.4334079,8.83854174 11.4073661,8.82366071 C11.3813243,8.80877969 11.3645834,8.80133929 11.3571429,8.80133929 C11.4241075,8.76413672 11.4315479,8.7046135 11.3794643,8.62276786 C11.4166669,8.60044632 11.4445684,8.55952411 11.4631696,8.5 C11.4817709,8.44047589 11.5096724,8.40327388 11.546875,8.38839286 C11.6138396,8.47767902 11.6919638,8.48511942 11.78125,8.41071429 C11.8407741,8.35119018 11.8444943,8.29166696 11.7924107,8.23214286 C11.8296133,8.18005926 11.9058774,8.14099715 12.0212054,8.11495536 C12.1365333,8.08891356 12.205357,8.05357165 12.2276786,8.00892857 C12.2797622,8.0238096 12.3095238,8.0163692 12.3169643,7.98660714 C12.3244048,7.95684509 12.328125,7.91220268 12.328125,7.85267857 C12.328125,7.79315446 12.3392856,7.74851205 12.3616071,7.71875 C12.3913692,7.68154743 12.4471722,7.64806562 12.5290179,7.61830357 C12.6108635,7.58854152 12.6592261,7.56994051 12.6741071,7.5625 L12.8638393,7.43973214 C12.8846211,7.41202309 12.8860546,7.39721307 12.8681399,7.39530171 C13.0000577,7.40915185 13.1140555,7.36808732 13.2098214,7.27232143 C13.2842266,7.19047578 13.2619054,7.11607176 13.1428571,7.04910714 C13.1651787,7.00446406 13.1540181,6.96912215 13.109375,6.94308036 C13.0647319,6.91703856 13.0089289,6.89657746 12.9419643,6.88169643 C12.9642858,6.87425592 13.0070681,6.87239581 13.0703125,6.87611607 C13.1335569,6.87983633 13.172619,6.87425603 13.1875,6.859375 C13.2991077,6.78496987 13.2730663,6.72544665 13.109375,6.68080357 C12.9828863,6.643601 12.8229176,6.68824342 12.6294643,6.81473214 C12.6145833,6.82217266 12.5792414,6.85751456 12.5234375,6.92075893 C12.4692046,6.98222283 12.4202431,7.01733319 12.3765515,7.02609098 L12.3765233,7.02639893 Z M12.621338,5.09496009 C12.6203362,5.09530108 12.6193247,5.09564177 12.6183036,5.09598214 C12.6186439,5.09586869 12.6189865,5.09575523 12.6193312,5.09564177 L12.621338,5.09496009 Z M12.432161,4.93810523 C12.4309772,4.93865239 12.4297807,4.93919469 12.4285714,4.93973214 C12.4285957,4.9397281 12.4286199,4.93972407 12.4286441,4.93972005 L12.432161,4.93810523 Z M9.02563751,5.27436177 C9.02527917,5.27442892 9.02491786,5.27449286 9.02455357,5.27455357 C9.02462374,5.27454294 9.0246939,5.27453231 9.02476406,5.27452169 L9.02563751,5.27436177 Z M9.19349401,4.0580725 C9.19299739,4.05804798 9.19248748,4.05803571 9.19196429,4.05803571 C9.19229231,4.0580732 9.19262022,4.05811058 9.19294801,4.05814784 L9.19349401,4.0580725 Z M10.2289221,3.11988105 C10.2292934,3.1200297 10.2296229,3.12024792 10.2299107,3.12053571 C10.2295362,3.12038593 10.2291635,3.12023614 10.2287924,3.12008635 L10.2289221,3.11988105 Z M9.4162902,3.24018832 C9.41593895,3.2412256 9.4155684,3.24226402 9.41517857,3.24330357 C9.41521309,3.24323884 9.41524762,3.24317413 9.41528214,3.24310943 L9.4162902,3.24018832 Z M7.51752703,3.00870976 C7.51763688,3.00878216 7.51774692,3.00885509 7.51785714,3.00892857 C7.51602666,3.00755571 7.51415397,3.0061336 7.51223906,3.00466224 L7.51752703,3.00870976 Z M4.43152942,7.2167852 C4.43349455,7.21660697 4.43548474,7.21651786 4.4375,7.21651786 C4.43549076,7.21680489 4.4335009,7.21701165 4.43153041,7.21713813 L4.43152942,7.2167852 Z M9.82790921,13.1094658 C9.82798116,13.1094355 9.82805309,13.1094053 9.828125,13.109375 C9.82774639,13.1095643 9.82737862,13.1097669 9.82702168,13.1099826 L9.82790921,13.1094658 Z M10.5619882,13.8680407 C10.5630837,13.8644443 10.5639984,13.8608117 10.5647321,13.8571429 C10.5634098,13.8606692 10.5622571,13.8642477 10.5612742,13.8678785 L10.5619882,13.8680407 Z M8.58271441,10.1862931 C8.58095679,10.1856096 8.57942698,10.1852679 8.578125,10.1852679 C8.57978071,10.1859774 8.58149093,10.1866588 8.58325566,10.187312 L8.58271441,10.1862931 Z M12.8681399,7.39530171 C12.8668126,7.39516009 12.865379,7.39508929 12.8638393,7.39508929 C12.8651696,7.3952371 12.8664981,7.3953794 12.8678247,7.39551621 L12.8681399,7.39530171 Z" id="Globe---FontAwesome"></path>
                        </g>
                    </g>
                </g>
            </g>
        </g>
    </g>
</svg>