<?xml version="1.0" encoding="UTF-8"?>
<svg width="16px" height="16px" viewBox="0 0 16 16" version="1.1" xmlns="http://www.w3.org/2000/svg" xmlns:xlink="http://www.w3.org/1999/xlink">
    <!-- Generator: Sketch 51.3 (57544) - http://www.bohemiancoding.com/sketch -->
    <title>icon-footer3</title>
    <desc>Created with Sketch.</desc>
    <defs></defs>
    <g id="HomePage" stroke="none" stroke-width="1" fill="none" fill-rule="evenodd">
        <g id="Homepage-Copy-2" transform="translate(-840.000000, -4085.000000)" fill="#FFFFFF">
            <g id="Footer" transform="translate(0.000000, 4022.000000)">
                <g id="Stacked-Group" transform="translate(239.000000, 60.000000)">
                    <g id="Tel" transform="translate(599.000000, 0.000000)">
                        <g id="envelope---FontAwesome-Copy-3" transform="translate(0.000000, 1.000000)">
                            <path d="M17.7777778,14.5075758 C17.7777778,14.7064404 17.7409515,14.9660653 17.667298,15.2864583 C17.5936444,15.6068513 17.5163093,15.859111 17.4352904,16.0432449 C17.2806179,16.4115128 16.8313379,16.8018708 16.0874369,17.2143308 C15.3950933,17.589964 14.7101254,17.7777778 14.0325126,17.7777778 C13.833648,17.7777778 13.638469,17.7648886 13.4469697,17.7391098 C13.2554704,17.7133311 13.0437196,17.6672983 12.8117109,17.6010101 C12.5797021,17.5347219 12.4066188,17.4813239 12.2924558,17.4408144 C12.1782928,17.4003049 11.9739072,17.3248112 11.6792929,17.2143308 C11.3846787,17.1038505 11.2042301,17.0375632 11.1379419,17.0154672 C10.416137,16.7576797 9.77167792,16.452022 9.20454545,16.0984848 C8.26914515,15.5166217 7.29693265,14.7211751 6.28787879,13.7121212 C5.27882492,12.7030673 4.48337833,11.7308548 3.90151515,10.7954545 C3.54797803,10.2283221 3.24232031,9.58386304 2.98453283,8.86205808 C2.96243676,8.79576987 2.89614954,8.61532134 2.78566919,8.32070707 C2.67518884,8.0260928 2.59969507,7.82170722 2.55918561,7.70754419 C2.51867614,7.59338116 2.46527811,7.42029788 2.3989899,7.18828914 C2.33270169,6.95628041 2.2866689,6.74452958 2.26089015,6.5530303 C2.2351114,6.36153103 2.22222222,6.166352 2.22222222,5.96748737 C2.22222222,5.28987456 2.410036,4.60490666 2.78566919,3.91256313 C3.19812917,3.16866211 3.58848722,2.71938209 3.95675505,2.5647096 C4.14088897,2.48369067 4.39314865,2.40635559 4.71354167,2.33270202 C5.03393468,2.25904845 5.29355961,2.22222222 5.49242424,2.22222222 C5.59553924,2.22222222 5.67287432,2.23327009 5.72443182,2.25536616 C5.85700824,2.2995583 6.05218726,2.57943766 6.30997475,3.09501263 C6.39099367,3.2349544 6.50147236,3.43381605 6.64141414,3.69160354 C6.78135592,3.94939102 6.91024773,4.18323759 7.02809343,4.39315025 C7.14593914,4.60306292 7.26010046,4.80008325 7.37058081,4.98421717 C7.39267688,5.0136786 7.45712278,5.10574418 7.56392045,5.26041667 C7.67071813,5.41508916 7.74989452,5.54582228 7.80145202,5.65261995 C7.85300952,5.75941762 7.87878788,5.86437238 7.87878788,5.96748737 C7.87878788,6.11479451 7.77383312,6.29892566 7.56392045,6.51988636 C7.35400779,6.74084706 7.12568516,6.94339134 6.87894571,7.12752525 C6.63220626,7.31165917 6.40388363,7.50683819 6.19397096,7.71306818 C5.98405829,7.91929817 5.87910354,8.08869883 5.87910354,8.22127525 C5.87910354,8.28756346 5.89751665,8.37042248 5.93434343,8.4698548 C5.97117022,8.56928711 6.00247251,8.64478089 6.02825126,8.69633838 C6.05403001,8.74789588 6.10558673,8.83627884 6.18292298,8.9614899 C6.26025923,9.08670096 6.30260939,9.1566708 6.30997475,9.17140152 C6.86974186,10.1804554 7.51051828,11.0458718 8.23232323,11.7676768 C8.95412819,12.4894817 9.81954462,13.1302581 10.8285985,13.6900253 C10.8433292,13.6973906 10.913299,13.7397408 11.0385101,13.817077 C11.1637212,13.8944133 11.2521041,13.94597 11.3036616,13.9717487 C11.3552191,13.9975275 11.4307129,14.0288298 11.5301452,14.0656566 C11.6295775,14.1024833 11.7124365,14.1208965 11.7787247,14.1208965 C11.9113012,14.1208965 12.0807018,14.0159417 12.2869318,13.806029 C12.4931618,13.5961164 12.6883408,13.3677937 12.8724747,13.1210543 C13.0566087,12.8743148 13.2591529,12.6459922 13.4801136,12.4360795 C13.7010743,12.2261669 13.8852055,12.1212121 14.0325126,12.1212121 C14.1356276,12.1212121 14.2405824,12.1469905 14.3473801,12.198548 C14.4541777,12.2501055 14.5849108,12.3292819 14.7395833,12.4360795 C14.8942558,12.5428772 14.9863214,12.6073231 15.0157828,12.6294192 C15.1999167,12.7398995 15.3969371,12.8540609 15.6068497,12.9719066 C15.8167624,13.0897523 16.050609,13.2186441 16.3083965,13.3585859 C16.5661839,13.4985276 16.7650456,13.6090063 16.9049874,13.6900253 C17.4205623,13.9478127 17.7004417,14.1429918 17.7446338,14.2755682 C17.7667299,14.3271257 17.7777778,14.4044608 17.7777778,14.5075758 Z" id="phone---FontAwesome"></path>
                        </g>
                    </g>
                </g>
            </g>
        </g>
    </g>
</svg>