<?xml version="1.0" encoding="UTF-8"?>
<svg width="49px" height="60px" viewBox="0 0 49 60" version="1.1" xmlns="http://www.w3.org/2000/svg" xmlns:xlink="http://www.w3.org/1999/xlink">
    <!-- Generator: Sketch 51.3 (57544) - http://www.bohemiancoding.com/sketch -->
    <title>copy-documents</title>
    <desc>Created with Sketch.</desc>
    <defs></defs>
    <g id="HomePage" stroke="none" stroke-width="1" fill="none" fill-rule="evenodd">
        <g id="Homepage-Copy-2" transform="translate(-696.000000, -2183.000000)" fill="#69FFCD" fill-rule="nonzero">
            <g id="Section2" transform="translate(136.000000, 2043.000000)">
                <g id="Card" transform="translate(400.000000, 108.000000)">
                    <g id="Stacked-Group" transform="translate(32.000000, 32.000000)">
                        <g id="copy-documents" transform="translate(128.000000, 0.000000)">
                            <path d="M13.8281607,0 C11.387885,0 9.39153728,2.02178613 9.39153728,4.49315692 L9.39153728,9.51120858 L4.43662342,9.51120858 C1.99655204,9.51120858 0,11.5325809 0,14.0039517 L0,55.5068431 C0,57.978007 1.99634775,60 4.43662342,60 L35.1718393,60 C37.6119107,60 39.6084627,57.9782139 39.6084627,55.5068431 L39.6084627,50.4887914 L44.5633766,50.4887914 C47.003448,50.4887914 49,48.4674191 49,45.9960483 L49,13.1395409 C49,12.8784384 48.9025524,12.6270599 48.727065,12.4356813 L37.6282541,0.33061955 C37.4349932,0.11979269 37.1636926,0 36.8797258,0 L13.8281607,0 Z M13.8281607,2.06895838 L35.0043193,2.06895838 L35.0043193,13.1395409 C35.0043193,13.7107803 35.4617306,14.1740201 36.0257826,14.1740201 L46.9570735,14.1740201 L46.9570735,45.9960483 C46.9570735,47.3568022 45.9072136,48.419833 44.5633766,48.419833 L39.6084627,48.419833 L39.6084627,22.6503357 C39.6084627,22.38944 39.5108108,22.1380616 39.3355277,21.9468898 L28.2367168,9.84182813 C28.043456,9.63100127 27.7721553,9.51120858 27.4881885,9.51120858 L13.4849491,9.51120858 L13.4849491,4.14557191 L18.9505945,4.14557191 C19.2327227,4.14970983 19.4645948,3.92129682 19.4684764,3.63557367 C19.4725622,3.34985052 19.2470232,3.11502374 18.964895,3.11109272 C18.959992,3.11109272 18.9552933,3.11109272 18.9503902,3.11109272 L12.9742174,3.11109272 C12.6920893,3.11109272 12.4634858,3.34260916 12.4634858,3.62833232 L12.4634858,9.51120858 L11.4344638,9.51120858 L11.4344638,4.49315692 C11.4344638,3.1321961 12.4843237,2.06895838 13.8281607,2.06895838 Z M37.0472458,2.73764573 L45.6363216,12.1048548 L37.0472458,12.1048548 L37.0472458,2.73764573 Z M4.43662342,11.580167 L25.612782,11.580167 L25.612782,22.6503357 C25.612782,23.2215751 26.0701933,23.6848149 26.6342453,23.6848149 L37.5655362,23.6848149 L37.5655362,55.5068431 C37.5655362,56.867597 36.5156763,57.9310416 35.1718393,57.9310416 L4.43662342,57.9310416 C3.09299068,57.9310416 2.04292647,56.8678039 2.04292647,55.5068431 L2.04292647,14.0039517 C2.04292647,12.6429909 3.09299068,11.580167 4.43662342,11.580167 Z M27.6557085,12.2484405 L36.2443757,21.6156496 L27.6557085,21.6156496 L27.6557085,12.2484405 Z M3.58268015,12.6223013 C3.30055201,12.6223013 3.07194853,12.8538177 3.07194853,13.1395409 L3.07194853,26.1090134 C3.06786268,26.3947366 3.29340176,26.6295633 3.57552991,26.6334944 C3.85765806,26.6374254 4.08953021,26.4092193 4.09341177,26.1234961 C4.09341177,26.1185306 4.09341177,26.113772 4.09341177,26.1088065 L4.09341177,13.6567805 L9.55905725,13.6567805 C9.8411854,13.6609184 10.0730576,13.4325054 10.0769391,13.1467823 C10.081025,12.8610591 9.85548588,12.6262323 9.57335774,12.6223013 C9.56845471,12.6223013 9.56375598,12.6223013 9.55885296,12.6223013 L3.58268015,12.6223013 Z" id="path23062"></path>
                        </g>
                    </g>
                </g>
            </g>
        </g>
    </g>
</svg>