<?xml version="1.0" encoding="UTF-8"?>
<svg width="60px" height="60px" viewBox="0 0 60 60" version="1.1" xmlns="http://www.w3.org/2000/svg" xmlns:xlink="http://www.w3.org/1999/xlink">
    <!-- Generator: Sketch 51 (57462) - http://www.bohemiancoding.com/sketch -->
    <title>colours-palette</title>
    <desc>Created with Sketch.</desc>
    <defs></defs>
    <g id="HomePage" stroke="none" stroke-width="1" fill="none" fill-rule="evenodd">
        <g id="Homepage-Copy-2" transform="translate(-290.000000, -2183.000000)">
            <rect fill="#FEFEFE" x="0" y="0" width="1440" height="4362"></rect>
            <g id="Section2" transform="translate(136.000000, 2043.000000)" fill="#6AD2FF" fill-rule="nonzero">
                <g id="Card" transform="translate(0.000000, 108.000000)">
                    <g id="Stacked-Group" transform="translate(32.000000, 32.000000)">
                        <g id="colours-palette" transform="translate(122.000000, 0.000000)">
                            <path d="M5.17241379,0 C2.32468966,0 0,2.32468966 0,5.17241379 L0,54.8275862 C0,57.6753103 2.32468966,60 5.17241379,60 L13.4482759,60 C13.5151034,60 13.5815172,59.9973103 13.647931,59.9948276 L13.647931,60 L54.8275862,60 C57.6753103,60 60,57.6753103 60,54.8275862 L60,46.5517241 C60,43.704 57.6753103,41.3793103 54.8275862,41.3793103 L31.7873793,41.3793103 L49.7886207,23.378069 C51.8021379,21.3645517 51.8021379,18.0771724 49.7886207,16.0634483 L43.9365517,10.2113793 C42.9295862,9.20441379 41.6008966,8.69275862 40.2790345,8.69275862 C38.9571724,8.69275862 37.6286897,9.20462069 36.621931,10.2113793 L18.6206897,28.2126207 L18.6206897,5.17241379 C18.6206897,2.32468966 16.296,0 13.4482759,0 L5.17241379,0 Z M5,2 L13,2 C14.6792,2 16,3.36971852 16,5.11111111 L16,54.8888889 C16,56.6302815 14.6792,58 13,58 L5,58 C3.3208,58 2,56.6302815 2,54.8888889 L2,5.11111111 C2,3.36971852 3.3208,2 5,2 Z M4.49946231,4 C4.22358885,4 4.00005344,4.23768272 4.00005344,4.5310159 L4.00005344,20.4614931 C3.99605817,20.7548262 4.21659713,20.9959075 4.49247059,20.9999432 C4.76834405,21.0041913 4.99507569,20.7696947 4.99887119,20.4763615 C4.99887119,20.4712637 4.99887119,20.4663784 4.99887119,20.4612806 L4.99887119,5.06203181 L9.49355109,5.06203181 C9.76942455,5.06627994 9.99615618,4.83178331 9.99995169,4.53845013 C10.0037472,4.24511694 9.783408,4.00403572 9.50753454,4 C9.50274021,4 9.49814565,4 9.49335133,4 L4.49946231,4 Z M40.9226728,11 C41.726014,11 42.5224444,11.3020732 43.1440078,11.9238161 L49.0674979,17.8490175 C50.310834,19.0927127 50.310834,21.0488566 49.0674979,22.2927614 L29.3659507,42 L19,42 L19,31.6310547 L38.7015472,11.9238161 C39.3233199,11.3018637 40.1193315,11 40.9226728,11 Z M36.4952656,16.0000005 C36.2216809,16.0000005 36,16.221885 36,16.4954764 C36,16.6292015 36.054083,16.7571812 36.1499664,16.8504916 L43.154012,23.8547102 C43.3473637,24.0482647 43.661164,24.0484628 43.8547138,23.8551064 C44.0482635,23.6617499 44.0484616,23.3479419 43.85511,23.1543874 C43.8549119,23.1541893 43.8547138,23.1539911 43.8547138,23.1539911 L36.8506681,16.1497725 C36.7573601,16.0538868 36.6289873,15.9998024 36.4952656,16.0000005 Z M29.4952594,23.0000005 C29.2216781,23.0000005 29,23.2218822 29,23.4954703 C29,23.6291936 29.0540823,23.7573699 29.1499645,23.850481 L36.1539231,30.8544144 C36.3470743,31.0481647 36.6606725,31.0485609 36.854418,30.855405 C37.0481635,30.662249 37.0485597,30.348643 36.8554085,30.1548928 C36.8552104,30.1546947 36.8548142,30.1542984 36.8546161,30.1541003 L29.8506576,23.1499688 C29.7573507,23.053688 29.6291776,22.9998024 29.4952594,23.0000005 Z M22.4949231,30 C22.2213088,30.0001981 21.999802,30.2222944 22.0000001,30.4959029 C22.0001983,30.629438 22.0542871,30.7574257 22.1499828,30.8505437 L29.1545891,37.8551963 C29.3481599,38.0485648 29.661796,38.0481685 29.8551686,37.854602 C30.048145,37.6612335 30.0483431,37.3481986 29.8553667,37.1548301 L22.8505623,30.1501775 C22.757046,30.0540877 22.6288574,30 22.4949231,30 Z M19.0306371,43 L54.9234713,43 C56.645507,43 58,44.3208 58,46 L58,54 C58,55.6792 56.645507,57 54.9234713,57 L18,57 C18.6466863,56.1632 19.0306371,55.1238 19.0306371,54 L19.0306371,43 Z M29.4926033,45.0001997 C29.2166314,45.0041946 28.9962539,45.2309008 29.0000535,45.5065436 L29.0000535,55.4936027 C28.9960539,55.7694452 29.2168314,55.9961515 29.4930033,55.9999466 C29.7691751,56.0039414 29.996152,55.7834271 29.9999516,55.5075846 C29.9999516,55.5027908 29.9999516,55.4981967 29.9999516,55.4934029 L29.9999516,45.5063439 C30.0037513,45.2305013 29.7831737,45.0037951 29.5070019,45 C29.5022023,45 29.4974028,45 29.4926033,45.0001997 Z M40.4926033,45.0001997 C40.2166314,45.0041946 39.9962539,45.2309008 40.0000535,45.5065436 L40.0000535,55.4936027 C39.9960539,55.7694452 40.2168314,55.9961515 40.4930033,55.9999466 C40.7691751,56.0039414 40.996152,55.7834271 40.9999516,55.5075846 C40.9999516,55.5027908 40.9999516,55.4981967 40.9999516,55.4934029 L40.9999516,45.5063439 C41.0037513,45.2305013 40.7831737,45.0037951 40.5070019,45 C40.5022023,45 40.4974028,45 40.4926033,45.0001997 Z M50.4926033,45.0001997 C50.2166314,45.0041946 49.9962539,45.2309008 50.0000535,45.5065436 L50.0000535,55.4936027 C49.9960539,55.7694452 50.2168314,55.9961515 50.4930033,55.9999466 C50.7691751,56.0039414 50.996152,55.7834271 50.9999516,55.5075846 C50.9999516,55.5027908 50.9999516,55.4981967 50.9999516,55.4934029 L50.9999516,45.5063439 C51.0037513,45.2305013 50.7831737,45.0037951 50.5070019,45 C50.5022023,45 50.4974028,45 50.4926033,45.0001997 Z M9,46 C6.2504,46 4,48.2504 4,51 C4,53.7496 6.2504,56 9,56 C11.7496,56 14,53.7496 14,51 C14,48.2504 11.7496,46 9,46 Z M9,48 C10.6686,48 12,49.3314 12,51 C12,52.6686 10.6686,54 9,54 C7.3314,54 6,52.6686 6,51 C6,49.3314 7.3314,48 9,48 Z M9.49414487,48.0001995 C8.12259407,48.0001995 7.00005337,49.1226875 7.00005337,50.4941738 C6.99606283,50.769708 7.21634099,50.9961609 7.49188822,50.9999518 C7.76743545,51.0037426 7.99389895,50.7836743 7.99768997,50.50814 C7.99768997,50.5033516 7.99768997,50.4987627 7.99768997,50.4939743 C7.99768997,49.6615854 8.66171689,48.9975897 9.49414487,48.9975897 C9.7696921,49.0015801 9.99615561,48.7813123 9.99994663,48.505778 C10.0039372,48.2302437 9.78365901,48.0037908 9.50811178,48 C9.50352265,48.0001995 9.49893353,48.0001995 9.49414487,48.0001995 Z" id="rect22054"></path>
                        </g>
                    </g>
                </g>
            </g>
        </g>
    </g>
</svg>